<?xml version="1.0" standalone="no"?>
<!DOCTYPE svg PUBLIC "-//W3C//DTD SVG 20010904//EN"
 "http://www.w3.org/TR/2001/REC-SVG-20010904/DTD/svg10.dtd">
<svg version="1.0" xmlns="http://www.w3.org/2000/svg"
 width="315.000000pt" height="315.000000pt" viewBox="0 0 315.000000 315.000000"
 preserveAspectRatio="xMidYMid meet">
<metadata>
Created by potrace 1.14, written by Peter Selinger 2001-2017
</metadata>
<g transform="translate(0.000000,315.000000) scale(0.100000,-0.100000)"
fill="#000000" stroke="none">
<path d="M720 2310 c0 -5 5 -10 10 -10 6 0 10 5 10 10 0 6 -4 10 -10 10 -5 0
-10 -4 -10 -10z"/>
<path d="M275 2252 c-11 -2 -26 -5 -33 -7 -7 -3 -14 -5 -17 -5 -3 0 -14 -9
-25 -20 -12 -12 -26 -18 -32 -14 -8 5 -9 2 -5 -9 4 -10 1 -17 -6 -17 -17 0
-145 -122 -147 -140 -5 -31 2 -41 63 -102 82 -83 101 -85 170 -19 29 27 66 68
82 91 25 33 35 40 60 38 28 -3 31 -7 39 -55 5 -29 14 -53 20 -53 7 0 7 -3 0
-8 -8 -5 -10 -27 -5 -73 10 -101 8 -206 -6 -220 -6 -6 -31 -13 -55 -14 -24 -2
-51 -3 -61 -4 -18 -1 -40 -41 -41 -76 -1 -25 62 -66 93 -60 12 2 19 0 16 -5
-3 -5 9 -10 27 -12 27 -2 33 -7 32 -25 0 -12 3 -20 8 -17 4 3 8 0 8 -5 0 -6
-5 -11 -11 -11 -7 0 -8 -4 -2 -12 5 -7 8 -24 6 -38 -8 -61 -4 -196 8 -237 9
-34 21 -50 53 -72 78 -52 135 -81 160 -81 30 0 77 44 124 115 35 53 35 79 -2
105 -12 8 -34 27 -49 42 -28 27 -28 28 -25 145 l3 118 80 17 c52 11 85 13 97
7 15 -8 36 -71 30 -92 -1 -4 -2 -64 -3 -133 0 -117 1 -128 22 -150 12 -13 24
-22 26 -20 3 2 20 -11 38 -30 21 -21 40 -32 50 -28 10 4 14 2 10 -8 -4 -11 5
-13 39 -12 56 2 90 28 140 107 47 77 47 100 -4 132 -21 13 -44 34 -50 46 -13
23 -17 600 -5 620 4 6 2 15 -5 19 -8 5 -11 19 -7 38 3 16 3 33 0 36 -12 12
-12 36 0 36 7 0 3 7 -7 15 -14 11 -16 15 -5 15 11 1 10 4 -3 14 -10 7 -15 15
-12 19 3 3 -4 8 -15 12 -12 3 -19 10 -16 15 5 8 -11 24 -25 25 -3 1 -24 11
-47 23 -23 12 -52 22 -63 22 -12 0 -19 4 -16 9 3 4 -12 3 -34 -3 -25 -6 -42
-18 -46 -30 -4 -11 -12 -26 -18 -33 -26 -30 -35 -42 -50 -71 -26 -50 -21 -66
28 -92 58 -29 66 -54 66 -195 0 -86 -3 -115 -15 -125 -7 -6 -43 -17 -78 -23
-59 -10 -66 -9 -86 10 -20 19 -23 32 -25 124 -2 119 -15 152 -73 196 -34 25
-130 99 -159 122 -5 4 -30 19 -55 32 -24 13 -45 27 -47 31 -8 18 -89 63 -107
60z"/>
<path d="M1120 2210 c0 -5 5 -10 11 -10 5 0 7 5 4 10 -3 6 -8 10 -11 10 -2 0
-4 -4 -4 -10z"/>
<path d="M2827 2201 c-26 -10 -187 -152 -187 -166 0 -17 29 -41 72 -58 34 -14
37 -19 43 -71 8 -59 1 -272 -9 -316 -10 -42 -60 -83 -103 -85 -76 -2 -86 33
-85 333 1 254 5 242 -91 290 -74 37 -89 32 -183 -61 -46 -45 -84 -91 -84 -100
0 -17 57 -50 87 -50 7 0 15 -9 19 -19 3 -10 9 -18 14 -18 5 0 6 -101 3 -224
-7 -256 -5 -263 71 -296 23 -11 45 -23 50 -27 4 -4 12 -9 17 -9 5 -1 14 -2 19
-3 6 0 10 -7 10 -13 0 -19 64 -14 94 5 14 10 28 17 31 17 3 0 18 11 33 25 15
14 30 25 34 25 4 0 16 7 27 17 30 25 80 22 139 -9 82 -44 103 -67 106 -120 3
-41 1 -47 -23 -58 -14 -7 -55 -14 -91 -16 -36 -2 -87 -6 -115 -9 -27 -2 -83
-6 -122 -6 -45 -1 -73 -6 -73 -13 0 -6 -4 -5 -9 3 -8 12 -12 11 -27 -4 -12
-12 -19 -14 -22 -6 -3 8 -10 7 -24 -6 -11 -10 -23 -17 -27 -17 -33 7 -99 -68
-105 -118 -1 -13 -6 -29 -10 -36 -4 -7 -3 -12 2 -12 5 0 8 -14 7 -30 -1 -17 2
-33 7 -36 5 -3 6 -14 3 -23 -5 -17 15 -33 55 -44 16 -4 40 15 40 32 0 6 12 13
28 17 15 3 45 12 67 20 55 18 143 33 245 39 46 3 87 9 90 13 3 4 17 13 32 19
20 9 42 40 83 120 64 126 76 145 92 156 7 4 10 13 8 20 -2 6 5 28 15 47 11 19
24 48 31 63 8 19 16 26 27 22 12 -4 12 -3 3 9 -8 9 -8 21 -2 39 9 22 7 24 -10
20 -14 -4 -18 -1 -14 9 4 10 -13 33 -48 64 -30 27 -57 58 -60 69 -13 48 -29
423 -18 430 6 3 6 31 2 67 -1 10 -94 76 -122 86 -13 5 -32 6 -42 3z"/>
<path d="M1850 2029 c-68 -57 -114 -118 -104 -142 3 -8 24 -22 47 -29 59 -19
68 -42 70 -200 1 -153 -16 -254 -45 -264 -10 -3 -16 -8 -14 -12 2 -4 -15 -8
-38 -9 -55 -4 -83 26 -91 94 -10 91 -20 261 -15 273 1 3 4 42 7 87 4 79 3 83
-24 111 -52 52 -118 94 -98 62 3 -6 -1 -7 -10 -4 -8 4 -23 0 -32 -7 -12 -10
-15 -10 -9 -1 11 19 -9 14 -27 -6 -10 -10 -14 -22 -10 -25 3 -4 1 -7 -6 -7
-20 0 -141 -121 -141 -141 0 -21 31 -44 72 -54 22 -6 29 -14 33 -44 3 -20 8
-44 10 -53 2 -10 -1 -21 -6 -24 -6 -3 -5 -11 2 -20 9 -11 8 -15 -5 -20 -9 -3
-16 -13 -16 -21 0 -8 6 -13 13 -10 9 3 12 -28 12 -137 0 -114 4 -148 18 -176
18 -37 77 -75 135 -86 17 -4 32 -10 32 -14 0 -11 40 0 67 18 12 7 27 11 32 7
6 -3 9 0 6 8 -6 15 49 69 61 59 4 -4 4 2 0 13 -4 11 -4 16 0 12 4 -4 20 4 34
18 27 26 60 26 60 -1 0 -8 6 -11 16 -7 9 3 19 2 23 -3 12 -17 90 -54 114 -54
16 0 43 18 76 50 28 28 55 50 59 50 12 0 42 56 42 79 0 11 -12 28 -26 38 -75
53 -77 55 -80 129 -2 38 -6 85 -9 104 -8 42 -8 73 -2 120 14 103 17 179 8 203
-15 38 -95 87 -142 87 -31 0 -49 -10 -99 -51z"/>
<path d="M1240 1946 c0 -9 5 -16 10 -16 6 0 10 4 10 9 0 6 -4 13 -10 16 -5 3
-10 -1 -10 -9z"/>
<path d="M290 1805 c0 -8 5 -15 10 -15 6 0 10 7 10 15 0 8 -4 15 -10 15 -5 0
-10 -7 -10 -15z"/>
<path d="M1735 1760 c-3 -5 -1 -10 4 -10 6 0 11 5 11 10 0 6 -2 10 -4 10 -3 0
-8 -4 -11 -10z"/>
<path d="M1340 1540 c0 -5 5 -10 10 -10 6 0 10 5 10 10 0 6 -4 10 -10 10 -5 0
-10 -4 -10 -10z"/>
<path d="M1400 1480 c0 -5 5 -10 11 -10 5 0 7 5 4 10 -3 6 -8 10 -11 10 -2 0
-4 -4 -4 -10z"/>
</g>
</svg>
